<?xml version="1.0" encoding="UTF-8"?>
<svg id="Camada_2" xmlns="http://www.w3.org/2000/svg" version="1.1" viewBox="0 0 201 66">
  <!-- Generator: Adobe Illustrator 29.5.1, SVG Export Plug-In . SVG Version: 2.1.0 Build 141)  -->
  <defs>
    <style>
      .st0 {
        fill: #5d8c34;
      }
    </style>
  </defs>
  <path d="M.5,21s8,7,13.7,14.1,19.7,28.5,19.7,28.5c0,0,11.1-24.6,34.1-43.7C92.3-.3,112.8.7,112.8.7c0,0-18.6-3.1-44.3,16-22,16.4-35,41-35,41,0,0-11.5-17.5-18.7-24.9C8.6,26.4.5,21,.5,21Z"/>
  <g>
    <path class="st0" d="M32.7,16.4c-1.4,0-4.1,1-4.3,4.6-.2,4.7,3.9,3.5,3.9,3.5,0,0,3.4,1.3,4.4-3.3.6-2.6-1.7-5-4-4.8ZM34.4,21.8c-.2,1.3-1.2,2.5-2.5,2.4-.4,0-1.5-.5-1.5-2.2s1.5-2.8,2.4-2.8,1.7,1.2,1.5,2.5Z"/>
    <path class="st0" d="M32.5,25.6s-2.5,10.2-1.6,21.3,2.6,10.4,2.6,10.4c0,0,.3-15.7.2-19.7s-1.2-12-1.2-12Z"/>
  </g>
  <g>
    <path class="st0" d="M79.7,25.7l5.8,14.6,5.8-14.6h6.8l-10.1,24h-5l-10.1-24h6.8Z"/>
    <path class="st0" d="M106.3,25.7v24h-6.2v-24h6.2Z"/>
    <path class="st0" d="M124.4,31h-7.4v4h7v5.3h-7v4.1h7.4v5.3h-13.7v-24h13.7v5.3Z"/>
    <path class="st0" d="M128.4,49.7v-24h6.2l11.5,14.7v-14.7h6.2v24h-6.2l-11.5-14.7v14.7h-6.2Z"/>
    <path class="st0" d="M156.1,37.7c0-1.8.3-3.4,1-5,.7-1.5,1.6-2.9,2.7-4s2.6-2,4.2-2.7c1.6-.6,3.4-1,5.4-1s3.7.3,5.4,1c1.6.6,3,1.5,4.2,2.7,1.2,1.1,2.1,2.5,2.8,4s1,3.2,1,5-.3,3.4-1,5-1.6,2.9-2.8,4c-1.2,1.1-2.6,2-4.2,2.7-1.6.6-3.4,1-5.4,1s-3.7-.3-5.4-1c-1.6-.6-3-1.5-4.2-2.7-1.2-1.1-2.1-2.5-2.7-4-.7-1.5-1-3.2-1-5ZM162.6,37.7c0,1,.2,1.8.5,2.6.4.8.8,1.5,1.5,2.1.6.6,1.3,1.1,2.1,1.4.8.3,1.7.5,2.6.5s1.8-.2,2.6-.5c.8-.3,1.5-.8,2.2-1.4.6-.6,1.1-1.3,1.5-2.1.4-.8.5-1.7.5-2.6s-.2-1.8-.5-2.6c-.4-.8-.9-1.5-1.5-2.1-.6-.6-1.3-1.1-2.2-1.4-.8-.3-1.7-.5-2.6-.5s-1.8.2-2.6.5c-.8.3-1.5.8-2.1,1.4-.6.6-1.1,1.3-1.5,2.1-.4.8-.5,1.7-.5,2.6Z"/>
    <path class="st0" d="M192.3,25.7v18.7h7.5v5.3h-13.7v-24h6.2Z"/>
  </g>
  <g>
    <path class="st0" d="M75.8,53.9c.5,0,1.3,0,1.9.5.7.5,1.1,1.3,1.1,2.1s-.1,1.3-.8,1.9c-.7.6-1.5.7-2.1.7h-.6v3.5h-1.3v-8.5h1.9ZM75.2,57.8h.6c1.1,0,1.7-.6,1.7-1.3s-.2-1.3-1.7-1.3h-.6v2.7Z"/>
    <path class="st0" d="M79.7,57.1h1.3v.5c.1-.2.3-.3.5-.4.2-.1.5-.2.8-.2s.6,0,1,.3l-.5,1.1c-.3-.2-.5-.2-.6-.2-.3,0-.5,0-.8.3-.3.4-.3.9-.3,1.2v2.8h-1.3v-5.4Z"/>
    <path class="st0" d="M89.1,59.8c0,1.7-1.3,2.9-2.9,2.9s-2.9-1.2-2.9-2.9,1.3-2.8,2.9-2.8,2.9,1.2,2.9,2.8ZM87.8,59.8c0-1.2-.8-1.7-1.6-1.7s-1.6.5-1.6,1.7.6,1.7,1.6,1.7,1.6-.7,1.6-1.7Z"/>
    <path class="st0" d="M94.3,53.2h1.3v9.3h-1.3v-.6c-.6.6-1.2.7-1.6.7-1.7,0-2.6-1.4-2.6-2.9s1.2-2.8,2.6-2.8,1.1.1,1.6.8v-4.6ZM91.3,59.8c0,.9.6,1.7,1.5,1.7s1.5-.6,1.5-1.7-.7-1.7-1.5-1.7-1.5.8-1.5,1.7Z"/>
    <path class="st0" d="M98.3,57.1v3.1c0,.3,0,.7.2,1,.2.2.5.4.8.4s.7-.2.8-.4c.2-.3.2-.7.2-1v-3.1h1.3v3.1c0,.7,0,1.3-.6,1.8-.5.5-1.2.7-1.8.7s-1.2-.2-1.7-.7c-.5-.5-.6-1.1-.6-1.8v-3.1h1.3Z"/>
    <path class="st0" d="M104.4,58.3v4.2h-1.3v-4.2h-.5v-1.2h.5v-2h1.3v2h1v1.2h-1Z"/>
    <path class="st0" d="M111.6,59.8c0,1.7-1.3,2.9-2.9,2.9s-2.9-1.2-2.9-2.9,1.3-2.8,2.9-2.8,2.9,1.2,2.9,2.8ZM110.4,59.8c0-1.2-.8-1.7-1.6-1.7s-1.6.5-1.6,1.7.6,1.7,1.6,1.7,1.6-.7,1.6-1.7Z"/>
    <path class="st0" d="M115.2,58.5c-.1-.2-.4-.5-.8-.5s-.3,0-.4.1-.1.2-.1.3,0,.2.2.3c0,0,.2,0,.4.2l.6.3c.3.1.5.3.8.5.3.3.4.6.4,1s-.2.9-.5,1.2c-.4.5-.9.6-1.5.6s-.8,0-1.2-.3c-.3-.2-.6-.6-.7-1l1-.5c0,.2.2.4.3.5,0,0,.3.2.6.2s.4,0,.5-.2c.1-.1.2-.3.2-.4s0-.3-.2-.4c-.2-.2-.3-.2-.5-.3l-.5-.2c-.2-.1-.5-.3-.7-.5-.3-.3-.4-.6-.4-.9s.2-.9.4-1.2c.2-.3.7-.5,1.3-.5s.7,0,1,.3c.2.1.4.3.6.7l-.9.6Z"/>
    <path class="st0" d="M125.2,55.2h-3.4v2.2h3.3v1.2h-3.3v2.7h3.4v1.2h-4.7v-8.5h4.7v1.2Z"/>
    <path class="st0" d="M126.6,57.1h1.3v.5c.5-.6,1.2-.6,1.5-.6,1,0,1.4.5,1.6.7.2.3.3.7.3,1.5v3.3h-1.3v-3c0-1.4-.5-1.4-1-1.4s-1.1,0-1.1,1.8v2.6h-1.3v-5.4Z"/>
    <path class="st0" d="M138.2,59.8c0,1.7-1.3,2.9-2.9,2.9s-2.9-1.2-2.9-2.9,1.3-2.8,2.9-2.8,2.9,1.2,2.9,2.8ZM136.9,59.8c0-1.2-.8-1.7-1.6-1.7s-1.6.5-1.6,1.7.6,1.7,1.6,1.7,1.6-.7,1.6-1.7Z"/>
    <path class="st0" d="M140.7,53.2v9.3h-1.3v-9.3h1.3Z"/>
    <path class="st0" d="M147.6,59.8c0,1.7-1.3,2.9-2.9,2.9s-2.9-1.2-2.9-2.9,1.3-2.8,2.9-2.8,2.9,1.2,2.9,2.8ZM146.4,59.8c0-1.2-.8-1.7-1.6-1.7s-1.6.5-1.6,1.7.6,1.7,1.6,1.7,1.6-.7,1.6-1.7ZM146.6,54.4l-2,1.8-.7-.4,1.5-2,1.2.6Z"/>
    <path class="st0" d="M152.8,57.1h1.3v5c0,1.3-.1,2.2-.9,2.8-.3.3-.9.6-1.8.6s-1.3-.2-1.8-.7c-.4-.4-.7-1-.8-1.7h1.2c0,.3.2.6.4.8.2.2.5.4,1,.4s.8-.2,1-.4c.4-.4.4-1,.4-1.4v-.7c-.6.7-1.3.8-1.6.8-.7,0-1.3-.2-1.8-.7-.5-.5-.8-1.2-.8-2.1s.4-1.7.8-2.1c.5-.6,1.2-.7,1.8-.7s1.1.2,1.6.7v-.6ZM150.4,58.4c-.3.3-.5.8-.5,1.4s.2,1.1.5,1.4c.2.2.6.4,1,.4s.7-.1,1.1-.4c.4-.4.5-.9.5-1.3,0-.6-.2-1.1-.5-1.4-.3-.3-.7-.4-1-.4s-.7,0-.9.4Z"/>
    <path class="st0" d="M156.2,54.1c.5,0,.8.3.8.8s-.3.8-.8.8-.8-.3-.8-.8.3-.8.8-.8ZM156.8,57.1v5.4h-1.3v-5.4h1.3Z"/>
    <path class="st0" d="M162.5,58.7c-.6-.6-1.1-.7-1.5-.7-.6,0-1,.2-1.2.5s-.5.6-.5,1.2.2,1.1.5,1.3c.3.3.7.4,1.1.4s1.1-.2,1.5-.7v1.4c-.3.2-.8.4-1.6.4s-1.5-.3-2-.8c-.4-.4-.8-1-.8-2s.4-1.7.8-2.1,1.1-.8,2.2-.8.9,0,1.5.4v1.4Z"/>
    <path class="st0" d="M169.1,59.8c0,1.7-1.3,2.9-2.9,2.9s-2.9-1.2-2.9-2.9,1.3-2.8,2.9-2.8,2.9,1.2,2.9,2.8ZM167.8,59.8c0-1.2-.8-1.7-1.6-1.7s-1.6.5-1.6,1.7.6,1.7,1.6,1.7,1.6-.7,1.6-1.7Z"/>
    <path class="st0" d="M172.7,58.5c-.1-.2-.4-.5-.8-.5s-.3,0-.4.1-.1.2-.1.3,0,.2.2.3c0,0,.2,0,.4.2l.6.3c.3.1.5.3.8.5.3.3.4.6.4,1s-.2.9-.5,1.2c-.4.5-.9.6-1.5.6s-.8,0-1.2-.3c-.3-.2-.6-.6-.7-1l1-.5c0,.2.2.4.3.5,0,0,.3.2.6.2s.4,0,.5-.2c.1-.1.2-.3.2-.4s0-.3-.2-.4c-.2-.2-.3-.2-.5-.3l-.5-.2c-.2-.1-.5-.3-.7-.5-.3-.3-.4-.6-.4-.9s.2-.9.4-1.2c.2-.3.7-.5,1.3-.5s.7,0,1,.3c.2.1.4.3.6.7l-.9.6Z"/>
    <path class="st0" d="M175.3,60.9l1.1.4-1.6,3.2-.8-.3,1.3-3.3Z"/>
    <path class="st0" d="M182.2,53.9v7.3h2.5v1.2h-3.8v-8.5h1.3Z"/>
    <path class="st0" d="M189.5,53.2h1.3v9.3h-1.3v-.6c-.6.6-1.2.7-1.6.7-1.7,0-2.6-1.4-2.6-2.9s1.2-2.8,2.6-2.8,1.1.1,1.6.8v-4.6ZM186.6,59.8c0,.9.6,1.7,1.5,1.7s1.5-.6,1.5-1.7-.7-1.7-1.5-1.7-1.5.8-1.5,1.7Z"/>
    <path class="st0" d="M196.2,57.1h1.3v5.4h-1.3v-.6c-.6.6-1.2.7-1.6.7-1.7,0-2.6-1.4-2.6-2.9s1.2-2.8,2.6-2.8,1.1.1,1.6.8v-.6ZM193.3,59.8c0,.9.6,1.7,1.5,1.7s1.5-.6,1.5-1.7-.7-1.7-1.5-1.7-1.5.8-1.5,1.7Z"/>
    <path class="st0" d="M199.7,61.1c.4,0,.8.3.8.8s-.3.8-.8.8-.8-.3-.8-.8.3-.8.8-.8Z"/>
  </g>
</svg>